<?xml version="1.0" encoding="UTF-8"?>
<!-- Created with Inkscape (http://www.inkscape.org/) -->
<svg width="400" height="200" version="1.1" viewBox="0 0 400 200" xmlns="http://www.w3.org/2000/svg" xmlns:cc="http://creativecommons.org/ns#" xmlns:dc="http://purl.org/dc/elements/1.1/" xmlns:rdf="http://www.w3.org/1999/02/22-rdf-syntax-ns#">
 <title>Dashbi logo</title>
 <metadata>
  <rdf:RDF>
   <cc:Work rdf:about="">
    <dc:format>image/svg+xml</dc:format>
    <dc:type rdf:resource="http://purl.org/dc/dcmitype/StillImage"/>
    <dc:title>Dashbi logo</dc:title>
    <dc:date>4.08.2019 16:21</dc:date>
    <dc:creator>
     <cc:Agent>
      <dc:title>Marek Sierociński</dc:title>
     </cc:Agent>
    </dc:creator>
   </cc:Work>
  </rdf:RDF>
 </metadata>
 <g transform="matrix(.309 0 0 .309 122.75 -187.91)">
  <flowRoot fill="#000000" font-family="sans-serif" font-size="40px" letter-spacing="-13.97px" word-spacing="0px" style="line-height:1.25" xml:space="preserve"><flowRegion><rect x="-763.68" y="253.52" width="278.8" height="305.07"/></flowRegion><flowPara/></flowRoot>
  <rect x="125" y="897.52" width="225" height="175" fill="#3bb273"/>
  <rect transform="rotate(90)" x="672.52" y="-450" width="50" height="400" fill="#4d9de0"/>
  <rect x="125" y="747.52" width="175" height="125" fill="#3bb273"/>
  <rect x="50" y="747.52" width="50" height="325" fill="#3bb273"/>
  <rect transform="scale(-1)" x="-450" y="-872.52" width="125" height="125" fill="#e1bc29"/>
  <rect transform="scale(-1)" x="-450" y="-1072.5" width="75" height="175" fill="#e1bc29"/>
 </g>
 <path d="m131.92 162.09c1.126 0 2.055 0.39413 2.8433 1.1824 0.78824 0.78824 1.1824 1.7454 1.1824 2.8433v13.963h-14.273c-1.126 0-2.055-0.39411-2.8432-1.1823s-1.1824-1.7454-1.1824-2.8432v-6.6437h14.948v-3.2937c0-0.19706-0.0563-0.33781-0.19706-0.47857-0.14076-0.14075-0.28152-0.19706-0.47858-0.19706h-14.273v-3.35zm0.67564 14.639v-3.9693h-11.598v3.2937c0 0.19705 0.0563 0.3378 0.19706 0.47856s0.28151 0.19705 0.47857 0.19705zm32.289-14.639h3.5752l-6.7563 17.989h-2.7306l-6.0525-13.372-5.7147 13.372-0.0563-0.0281 0.0282 0.0281h-2.7025l-7.0659-17.989h3.547l4.8701 11.936 5.1798-11.936h3.8285l5.4895 11.936zm18.918 0c1.126 0 2.055 0.39413 2.8432 1.1824 0.78823 0.78824 1.1823 1.7454 1.1823 2.8433v6.6436h-14.948v3.2937c0 0.19705 0.0563 0.3378 0.19706 0.47856 0.14075 0.14076 0.28151 0.19705 0.47856 0.19705h14.273v3.35h-14.273c-1.126 0-2.055-0.39411-2.8432-1.1823s-1.1824-1.7454-1.1824-2.8432v-9.9373c0-1.126 0.39412-2.055 1.1824-2.8433 0.78823-0.78822 1.7454-1.1824 2.8432-1.1824zm-10.923 7.3193h11.598v-3.2937c0-0.19706-0.0563-0.33781-0.19705-0.47857-0.14076-0.14075-0.28151-0.19706-0.47856-0.19706h-10.247c-0.19705 0-0.33781 0.0563-0.47856 0.19706-0.14076 0.14076-0.19706 0.28151-0.19706 0.47857zm36.315-3.2655v0.67563h-3.35v-0.67563c0-0.19706-0.0563-0.33782-0.19705-0.47857-0.14076-0.14075-0.28151-0.19705-0.47856-0.19705h-10.247c-0.19705 0-0.33781 0.0563-0.47856 0.19705s-0.19705 0.28151-0.19705 0.47857v2.618c0 0.19706 0.0563 0.33781 0.19705 0.47856s0.28151 0.19706 0.47856 0.19706h10.247c1.126 0 2.055 0.39412 2.8432 1.1823 0.78823 0.78824 1.1824 1.7454 1.1824 2.8433v2.618c0 1.126-0.39412 2.055-1.1824 2.8433-0.78823 0.78821-1.7454 1.1823-2.8432 1.1823h-10.247c-1.126 0-2.055-0.39411-2.8432-1.1823-0.78822-0.78824-1.1823-1.7454-1.1823-2.8433v-0.67564h3.35v0.67564c0 0.19706 0.0563 0.33781 0.19705 0.47856s0.28151 0.19706 0.47856 0.19706h10.247c0.19705 0 0.3378-0.0563 0.47856-0.19706 0.14076-0.14075 0.19705-0.2815 0.19705-0.47856v-2.618c0-0.19706-0.0563-0.33782-0.19705-0.47857-0.14076-0.14075-0.28151-0.19706-0.47856-0.19706h-10.247c-1.126 0-2.055-0.39412-2.8432-1.1823-0.78822-0.78824-1.1823-1.7454-1.1823-2.8433v-2.618c0-1.126 0.39412-2.055 1.1823-2.8433 0.78823-0.78822 1.7454-1.1823 2.8432-1.1823h10.247c1.126 0 2.055 0.39412 2.8432 1.1823 0.78823 0.76009 1.1824 1.7172 1.1824 2.8433zm7.094-4.0538h10.247c1.126 0 2.055 0.39413 2.8432 1.1824 0.78824 0.78824 1.1824 1.7454 1.1824 2.8433v9.9373c0 1.126-0.39411 2.055-1.1824 2.8432-0.78822 0.78823-1.7454 1.1823-2.8432 1.1823h-10.247c-1.126 0-2.055-0.39411-2.8433-1.1823-0.78822-0.78823-1.1823-1.7454-1.1823-2.8432v-9.9373c0-1.126 0.39411-2.055 1.1823-2.8433 0.78824-0.78822 1.7454-1.1824 2.8433-1.1824zm10.247 3.35h-10.247c-0.19705 0-0.33781 0.0563-0.47857 0.19706-0.14075 0.14076-0.19705 0.28151-0.19705 0.47857v9.9373c0 0.19705 0.0563 0.3378 0.19705 0.47856 0.14076 0.14076 0.28152 0.19705 0.47857 0.19705h10.247c0.19705 0 0.33781-0.0563 0.47857-0.19705 0.14076-0.14076 0.19706-0.28151 0.19706-0.47856v-9.9373c0-0.19706-0.0563-0.33781-0.19706-0.47857-0.14076-0.1126-0.28152-0.19706-0.47857-0.19706zm30.262-3.35c1.126 0 2.055 0.39413 2.8432 1.1824 0.78823 0.78824 1.1823 1.7454 1.1823 2.8433v13.963h-3.3218v-13.963c0-0.19706-0.0563-0.33781-0.19705-0.47857-0.14076-0.14075-0.30967-0.19706-0.50672-0.19706h-7.0941c-0.19707 0-0.33782 0.0563-0.47857 0.19706-0.14076 0.14076-0.19706 0.28151-0.19706 0.47857v13.963h-3.35v-13.963c0-0.19706-0.0563-0.33781-0.19706-0.47857-0.14075-0.14075-0.28151-0.19706-0.47858-0.19706h-7.1222c-0.19706 0-0.33782 0.0563-0.47857 0.19706-0.14076 0.14076-0.19706 0.28151-0.19706 0.47857v13.963h-3.35v-17.989zm21.536 0c1.126 0 2.055 0.39413 2.8432 1.1824 0.78823 0.78824 1.1824 1.7454 1.1824 2.8433v6.6436h-14.948v3.2937c0 0.19705 0.0563 0.3378 0.19706 0.47856 0.14075 0.14076 0.28152 0.19705 0.47858 0.19705h14.273v3.35h-14.273c-1.126 0-2.055-0.39411-2.8433-1.1823-0.78824-0.78823-1.1824-1.7454-1.1824-2.8432v-9.9373c0-1.126 0.39411-2.055 1.1824-2.8433 0.78823-0.78822 1.7454-1.1824 2.8433-1.1824zm-10.923 7.3193h11.598v-3.2937c0-0.19706-0.0563-0.33781-0.19706-0.47857-0.14076-0.14075-0.28151-0.19706-0.47857-0.19706h-10.247c-0.19706 0-0.33783 0.0563-0.47858 0.19706-0.14076 0.14076-0.19706 0.28151-0.19706 0.47857z" fill="#494368" stroke-width=".28151"/>
 <path d="m261.8 54.284v11.908l7.5637 6.9346h-138.7l7.5341-6.9137v-11.917l-20.513 18.831h-0.0279v25.534c0 11.542 11.119 20.943 24.772 20.943h26.041c13.653 0 24.772-9.4012 24.772-20.943v-16.78h13.514v16.78c0 11.542 11.119 20.943 24.772 20.943h26.041c13.653 0 24.772-9.4012 24.772-20.943v-25.534z" fill="#494368" stroke-width=".28151"/>
</svg>
